# Blender 4.5.0
# www.blender.org
mtllib funkyQuadobj.mtl
o Cube
v 1.000000 1.000000 -1.000000
v 1.000000 -1.000000 -1.000000
v 1.000000 1.000000 1.000000
v 1.000000 -1.000000 1.000000
v -1.000000 1.000000 -1.000000
v -1.000000 -1.000000 -1.000000
v -1.000000 1.000000 1.000000
v -1.000000 -1.000000 1.000000
v 0.808384 2.220511 1.134740
v -1.129806 2.457883 0.702220
v 1.129806 1.497831 -0.702220
v -0.808384 1.735203 -1.134740
vn 0.9966 0.0156 0.0806
vn -0.0000 -0.0000 1.0000
vn -1.0000 -0.0000 -0.0000
vn -0.0000 -1.0000 -0.0000
vn 1.0000 -0.0000 -0.0000
vn -0.0000 -0.0000 -1.0000
vn 0.1872 0.9248 -0.3311
vn 0.1146 0.1008 -0.9883
vn -0.1062 0.0477 0.9932
vn -0.9963 0.0112 -0.0856
vt 0.977534 0.193365
vt 0.661310 0.193365
vt 0.707540 0.114751
vt 1.000000 -0.000000
vt 0.013275 0.561462
vt -0.000000 0.245349
vt 0.315772 0.232491
vt 0.329048 0.548604
vt 0.345544 0.548708
vt 0.329048 0.232661
vt 0.644813 0.216255
vt 0.661310 0.532302
vt 0.316482 0.561462
vt 0.316482 0.877944
vt 0.000000 0.877944
vt 0.000000 0.561462
vt 0.661409 0.509838
vt 0.977634 0.509838
vt 0.347498 0.980772
vt 0.329047 0.665234
vt 0.644520 0.647709
vt 0.662971 0.963247
vt 0.662971 0.865190
vt 0.662970 0.548708
vt 0.979452 0.548708
vt 0.979452 0.865190
vt 0.351328 0.548708
vt 0.662971 0.565497
vt 0.021040 0.051764
vt 0.329048 0.000000
vt 0.363164 -0.000000
vt 0.661310 0.098734
s 0
usemtl Material
f 3/1/1 1/2/1 11/3/1 9/4/1
f 4/5/2 3/6/2 7/7/2 8/8/2
f 8/9/3 7/10/3 5/11/3 6/12/3
f 6/13/4 2/14/4 4/15/4 8/16/4
f 2/17/5 1/2/5 3/1/5 4/18/5
f 6/19/6 5/20/6 1/21/6 2/22/6
f 11/23/7 12/24/7 10/25/7 9/26/7
f 1/21/8 5/20/8 12/27/8 11/28/8
f 7/7/9 3/6/9 9/29/9 10/30/9
f 5/11/10 7/10/10 10/31/10 12/32/10
